<?xml version="1.0" encoding="utf-8"?>
<!-- Generator: Adobe Illustrator 27.7.0, SVG Export Plug-In . SVG Version: 6.00 Build 0)  -->
<svg version="1.1" id="Layer_1" xmlns="http://www.w3.org/2000/svg" xmlns:xlink="http://www.w3.org/1999/xlink" x="0px" y="0px"
	 viewBox="0 0 800 800" style="enable-background:new 0 0 800 800;" xml:space="preserve">
<style type="text/css">
	.st0{fill:#C0C0C0;stroke:#000000;stroke-miterlimit:10;}
	.st1{fill:#FFFFFF;}
</style>
<ellipse class="st0" cx="401" cy="400.7" rx="320.3" ry="366"/>
<g id="SVGRepo_bgCarrier">
</g>
<g id="SVGRepo_tracerCarrier">
</g>
<g id="SVGRepo_iconCarrier">
	<g>
		<g>
			<path class="st1" d="M648.5,118.4C582.4,42.1,494.1,0,400,0S217.6,42.1,151.5,118.4C86.3,193.7,50.3,293.7,50.3,400
				s35.9,206.3,101.1,281.6C217.6,757.9,305.9,800,400,800s182.4-42.1,248.5-118.4c65.2-75.3,101.1-175.3,101.1-281.6
				S713.7,193.7,648.5,118.4z M400,743.1c-161.4,0-292.7-153.9-292.7-343.1S238.6,56.9,400,56.9S692.7,210.8,692.7,400
				S561.4,743.1,400,743.1z"/>
		</g>
	</g>
	<g>
		<g>
			<path class="st1" d="M575.5,192.7C529,135.6,466.7,104.2,400,104.2s-129,31.4-175.5,88.5c-45.1,55.5-70,129.1-70,207.3
				s24.9,151.8,70,207.3c46.5,57.1,108.8,88.5,175.5,88.5s129-31.4,175.5-88.5c45.2-55.5,70-129.1,70-207.3
				C645.5,321.8,620.6,248.2,575.5,192.7z M400,638.9c-104,0-188.6-107.2-188.6-238.9S296,161.1,400,161.1S588.6,268.3,588.6,400
				S504,638.9,400,638.9z"/>
		</g>
	</g>
	<g>
		<g>
			<path class="st1" d="M480.1,241.8c-11.1-11.1-29.1-11.1-40.2,0L269.4,412.2c-11.1,11.1-11.1,29.1,0,40.2
				c5.6,5.6,12.8,8.3,20.1,8.3c7.3,0,14.6-2.8,20.1-8.3l170.4-170.4C491.2,270.9,491.2,252.9,480.1,241.8z"/>
		</g>
	</g>
	<g>
		<g>
			<path class="st1" d="M530.6,347.8c-11.1-11.1-29.1-11.1-40.2,0L320.1,518.1c-11.1,11.1-11.1,29.1,0,40.2
				c5.6,5.6,12.8,8.3,20.1,8.3s14.6-2.8,20.1-8.3L530.6,388C541.7,376.9,541.7,358.9,530.6,347.8z"/>
		</g>
	</g>
</g>
</svg>
